<svg width="120" height="120" fill="none" xmlns="http://www.w3.org/2000/svg"><rect width="120" height="120" fill="#EFF7F0"/><path d="M22.8265 50.5712V88.9852C22.8265 89.2696 22.9358 89.512 23.1223 89.7027C23.312 89.8901 23.55 90 23.8362 90H67.3367C65.6774 88.0835 64.3655 85.805 63.5358 83.2422C62.8895 81.2449 62.5808 79.212 62.5808 77.2115C62.5808 73.1038 63.8799 69.148 66.2048 65.8806C68.5264 62.6132 71.8803 60.0309 75.9673 58.6961C77.9545 58.0465 79.9771 57.7363 81.9676 57.7363C83.6847 57.7363 85.3761 57.969 87 58.4117V5.01481C87 4.7304 86.8907 4.48801 86.7042 4.29733C86.5144 4.10988 86.2765 4 85.9903 4H23.8329C23.55 4 23.3088 4.10988 23.1191 4.29733C22.9326 4.48801 22.8232 4.72717 22.8232 5.01481V43.2413C22.8232 44.2529 22.0065 45.0738 21 45.0738V48.7387C22.0065 48.7387 22.8232 49.5596 22.8232 50.5712H22.8265ZM60.3813 55.6646C60.3813 56.1462 60.1884 56.618 59.8475 56.9606C59.5067 57.3032 59.0372 57.4971 58.5581 57.4971H50.651C50.1718 57.4971 49.7024 57.3032 49.3615 56.9606C49.0207 56.618 48.8277 56.1462 48.8277 55.6646V38.4517C48.8277 37.9702 49.0207 37.4983 49.3615 37.1557C49.7024 36.8131 50.1718 36.6192 50.651 36.6192H58.5581C59.0372 36.6192 59.5067 36.8131 59.8475 37.1557C60.1884 37.4983 60.3813 37.9702 60.3813 38.4517V55.6646ZM73.7807 26.9107C74.2598 26.9107 74.7293 27.1046 75.0702 27.4472C75.411 27.7898 75.6039 28.2616 75.6039 28.7432V55.6646C75.6039 56.1462 75.411 56.618 75.0702 56.9606C74.7293 57.3032 74.2598 57.4971 73.7807 57.4971H65.8736C65.3944 57.4971 64.925 57.3032 64.5841 56.9606C64.2433 56.618 64.0503 56.1462 64.0503 55.6646V28.7432C64.0503 28.2616 64.2433 27.7898 64.5841 27.4472C64.925 27.1046 65.3944 26.9107 65.8736 26.9107H73.7807ZM36.065 28.5234H36.0747L36.1358 28.5169C36.1937 28.5105 36.2837 28.504 36.4059 28.4911C36.6503 28.4652 37.0169 28.42 37.4863 28.3457C38.4253 28.197 39.7758 27.9352 41.3708 27.486C44.5606 26.5843 48.7216 24.9231 52.5707 21.9401C54.4646 20.4728 56.2815 18.6888 57.8957 16.5106L53.9952 17.5189C53.0209 17.771 52.0272 17.1796 51.7764 16.2003C51.5256 15.221 52.1141 14.2224 53.0884 13.9703L61.4103 11.8211C61.9023 11.6951 62.42 11.7791 62.8477 12.0538C63.2754 12.3285 63.568 12.7681 63.658 13.269L65.1854 21.7688C65.3655 22.7642 64.7063 23.7176 63.7159 23.8986C62.7255 24.0796 61.7769 23.4171 61.5968 22.4216L60.9087 18.5886C59.0597 21.1095 56.96 23.1714 54.7959 24.8455C51.905 27.082 48.8985 28.6365 46.1781 29.7192C40.7373 31.8813 36.4316 32.1722 36.3062 32.1819C35.3029 32.2498 34.4347 31.4838 34.3672 30.4755C34.2997 29.4671 35.0586 28.5945 36.0618 28.5266L36.065 28.5234ZM33.6083 42.2039C33.6083 41.7224 33.8013 41.2505 34.1421 40.9079C34.483 40.5653 34.9524 40.3714 35.4316 40.3714H43.3387C43.8178 40.3714 44.2873 40.5653 44.6282 40.9079C44.969 41.2505 45.1619 41.7224 45.1619 42.2039V55.6646C45.1619 56.1462 44.969 56.618 44.6282 56.9606C44.2873 57.3032 43.8178 57.4971 43.3387 57.4971H35.4316C34.9524 57.4971 34.483 57.3032 34.1421 56.9606C33.8013 56.618 33.6083 56.1462 33.6083 55.6646V42.2039Z" fill="white"/><path d="M22.6593 42.7521V4.65971C22.6593 4.37633 22.769 4.13481 22.9562 3.94481C23.1466 3.75804 23.3854 3.64855 23.6726 3.64855H86.0456C86.3296 3.64855 86.5716 3.75804 86.762 3.94481C86.9491 4.13481 87.0588 4.37311 87.0588 4.65971V57.8647C85.4293 57.4268 83.7319 57.1917 82.0087 57.1917C80.0145 57.1917 77.9848 57.5009 75.9873 58.1481C71.8859 59.4781 68.5202 62.0511 66.1904 65.3068C63.8606 68.5624 62.5537 72.504 62.5537 76.597C62.5537 78.5871 62.8634 80.6126 63.5121 82.606C64.3446 85.1596 65.6612 87.4299 67.3263 89.3395H23.6693C23.3854 89.3395 23.1434 89.23 22.953 89.0433C22.7658 88.8533 22.6561 88.615 22.6561 88.3284V50.0524C22.6561 49.0445 21.8365 48.2265 20.8264 48.2265C19.8164 48.2265 19 49.0445 19 50.0524V88.3284C19 89.61 19.526 90.7854 20.3682 91.6227C21.2072 92.4632 22.3883 92.9881 23.6693 92.9881H71.5922C74.6675 94.9299 78.2687 96.0087 81.9958 96.0087C83.9901 96.0087 86.0198 95.6995 88.0172 95.0522C88.3173 94.9556 88.611 94.8494 88.9014 94.7399L91.2377 97.8796C91.0312 98.134 90.8892 98.4367 90.8408 98.762C90.7698 99.2386 90.8956 99.7313 91.1828 100.118L101.009 113.321C101.657 114.193 102.49 114.866 103.41 115.317C104.329 115.768 105.336 116 106.353 116C107.727 116 109.128 115.572 110.315 114.689C111.19 114.042 111.864 113.211 112.316 112.293C112.768 111.376 113 110.371 113 109.357C113 107.985 112.571 106.587 111.687 105.402L101.861 92.1991C101.351 91.5132 100.454 91.2942 99.6987 91.6066L97.3753 88.4861C97.527 88.2897 97.6754 88.0933 97.8174 87.8936C100.147 84.6379 101.454 80.6964 101.454 76.6034C101.454 74.6133 101.144 72.5878 100.496 70.5944C99.163 66.5015 96.5847 63.1395 93.3223 60.8177C92.4962 60.2284 91.6249 59.7067 90.7182 59.2527V4.65971C90.7182 3.37805 90.1922 2.20265 89.35 1.36539C88.5045 0.524901 87.3267 0 86.0424 0H23.6693C22.385 0 21.2072 0.524901 20.3682 1.36539C19.526 2.20265 19 3.37805 19 4.65971V42.7489C19 43.76 19.8196 44.578 20.8297 44.578C21.8397 44.578 22.6593 43.76 22.6593 42.7521ZM92.2413 93.104C93.1642 92.534 94.029 91.8932 94.8293 91.1944L96.7234 93.7416L94.1387 95.6576L92.2413 93.1072V93.104ZM100.012 95.8476L108.747 107.585C109.147 108.126 109.334 108.738 109.337 109.36C109.337 109.817 109.231 110.274 109.031 110.683C108.828 111.096 108.531 111.463 108.131 111.759C107.588 112.158 106.975 112.345 106.353 112.348C105.894 112.348 105.436 112.242 105.026 112.042C104.613 111.839 104.245 111.543 103.949 111.144L95.2133 99.406L100.015 95.8476H100.012ZM91.1893 63.7932C93.8418 65.6835 95.9232 68.3982 97.0107 71.7312C97.5399 73.3542 97.7883 74.9965 97.7916 76.6098C97.7916 79.9235 96.7331 83.1309 94.8389 85.7779C92.9447 88.425 90.2244 90.502 86.8846 91.5872C85.2582 92.1154 83.6125 92.3633 81.9958 92.3665C78.6753 92.3665 75.4613 91.3103 72.8088 89.42C70.1563 87.5297 68.0749 84.8151 66.9874 81.4821C66.4582 79.8591 66.2098 78.2168 66.2065 76.6034C66.2065 73.2898 67.265 70.0824 69.1592 67.4353C71.0534 64.7883 73.7736 62.7112 77.1135 61.626C78.7399 61.0979 80.3856 60.8499 82.0023 60.8467C85.3228 60.8467 88.5368 61.9029 91.1893 63.7932Z" fill="#579E64"/><path d="M41 44H37V53H41V44Z" fill="#8ECEA5"/><path d="M34.8937 57H43.1063C43.604 57 44.0916 56.8075 44.4456 56.4674C44.7996 56.1274 45 55.659 45 55.181V41.819C45 41.341 44.7996 40.8726 44.4456 40.5326C44.0916 40.1925 43.604 40 43.1063 40H34.8937C34.396 40 33.9084 40.1925 33.5544 40.5326C33.2004 40.8726 33 41.341 33 41.819V55.181C33 55.659 33.2004 56.1274 33.5544 56.4674C33.9084 56.8075 34.396 57 34.8937 57ZM36.7874 43.638H41.2126V53.362H36.7874V43.638Z" fill="#579E64"/><path d="M72 30H68V53H72V30Z" fill="#8ECEA5"/><path d="M64 28.7973V55.2027C64 55.675 64.2004 56.1378 64.5544 56.4738C64.9084 56.8098 65.3961 57 65.8937 57H74.1063C74.604 57 75.0916 56.8098 75.4456 56.4738C75.7996 56.1378 76 55.675 76 55.2027V28.7973C76 28.325 75.7996 27.8622 75.4456 27.5262C75.0916 27.1902 74.604 27 74.1063 27H65.8937C65.3961 27 64.9084 27.1902 64.5544 27.5262C64.2004 27.8622 64 28.325 64 28.7973ZM67.7874 30.5947H72.2126V53.4053H67.7874V30.5947Z" fill="#579E64"/><path d="M57 40H52V53H57V40Z" fill="#8ECEA5"/><path d="M58.2641 36H50.7359C50.2797 36 49.8327 36.195 49.5082 36.5396C49.1837 36.8842 49 37.3588 49 37.8432V55.1568C49 55.6412 49.1837 56.1158 49.5082 56.4604C49.8327 56.805 50.2797 57 50.7359 57H58.2641C58.7203 57 59.1673 56.805 59.4918 56.4604C59.8163 56.1158 60 55.6412 60 55.1568V37.8432C60 37.3588 59.8163 36.8842 59.4918 36.5396C59.1673 36.195 58.7203 36 58.2641 36ZM56.5282 53.3104H52.4718V39.6831H56.5282V53.3104Z" fill="#579E64"/><path d="M94.887 91.0036C93.9942 91.79 93.0295 92.5079 92 93.1428L94.1166 96L97 93.8535L94.887 91V91.0036Z" fill="white"/><path d="M103.66 110.965C103.954 111.355 104.318 111.645 104.728 111.844C105.137 112.042 105.588 112.143 106.042 112.143C106.659 112.143 107.27 111.957 107.804 111.567C108.201 111.277 108.495 110.918 108.696 110.514C108.898 110.111 109 109.667 109 109.219C109 108.611 108.811 108.01 108.415 107.484L99.7583 96L95 99.4813L103.656 110.965H103.66Z" fill="#8ECEA5"/><path d="M35.9495 31.999C36.0755 31.989 40.4023 31.6899 45.8697 29.4663C48.6034 28.3528 51.6247 26.754 54.5297 24.4539C56.7044 22.7322 58.8113 20.6116 60.6725 18.019L61.364 21.961C61.545 22.9848 62.4982 23.6662 63.4935 23.48C64.4887 23.2939 65.1512 22.3134 64.9702 21.2896L63.4353 12.548C63.3448 12.0328 63.0508 11.5807 62.621 11.2982C62.1913 11.0157 61.671 10.9293 61.1766 11.0589L52.8139 13.2692C51.8348 13.5285 51.2434 14.5556 51.4955 15.5627C51.7475 16.5698 52.746 17.1781 53.7251 16.9188L57.6447 15.8818C56.0226 18.122 54.1969 19.9568 52.2936 21.4658C48.4257 24.5337 44.2443 26.2421 41.0388 27.1695C39.4361 27.6348 38.0789 27.9041 37.1354 28.0536C36.6636 28.1301 36.2952 28.1766 36.0496 28.2032C35.9269 28.2165 35.8364 28.2265 35.7782 28.2298L35.7168 28.2364H35.7071C34.6989 28.3062 33.9363 29.2037 34.0042 30.2407C34.0721 31.2778 34.9445 32.0655 35.9527 31.9957L35.9495 31.999Z" fill="#579E64"/><path d="M77.0503 61.7912C73.6665 62.8929 70.9138 65.0049 68.9914 67.689C67.0723 70.3764 66 73.6293 66 76.9967C66 78.6347 66.255 80.302 66.7912 81.9497C67.8929 85.3335 70.0049 88.0862 72.689 90.0086C75.3764 91.9277 78.6293 93 81.9967 93C83.6347 93 85.302 92.745 86.9497 92.2088C90.3335 91.1071 93.0862 88.9951 95.0086 86.311C96.9277 83.6236 98 80.3707 98 77.0033C98 75.3653 97.745 73.698 97.2088 72.0503C96.1071 68.6665 93.9951 65.9138 91.311 63.9914C88.6236 62.0723 85.3707 61 82.0033 61C80.3653 61 78.698 61.255 77.0503 61.7912ZM95.0151 72.763C95.4728 74.1655 95.6919 75.5975 95.6886 77C95.6886 79.8868 94.7699 82.669 93.1287 84.964C91.4908 87.2591 89.1173 89.0768 86.2305 90.0151C84.828 90.4728 83.3993 90.6886 81.9935 90.6886C79.1067 90.6886 76.3245 89.7699 74.0294 88.1287C71.7344 86.4908 69.9166 84.1173 68.9783 81.2305C68.5206 79.828 68.3049 78.396 68.3049 76.9935C68.3049 74.1067 69.2235 71.3245 70.8647 69.0294C72.5027 66.7344 74.8762 64.9166 77.763 63.9783C79.1655 63.5206 80.5942 63.3049 82 63.3049C84.8868 63.3049 87.669 64.2235 89.964 65.8647C92.2591 67.5027 94.0768 69.8762 95.0151 72.763Z" fill="white"/><path d="M78.8179 67.4944C76.7263 68.1853 75.0323 69.5016 73.8459 71.1814C72.6595 72.8612 71.9968 74.8978 72 77C72 78.0249 72.1552 79.0629 72.4882 80.0943C73.1703 82.2128 74.4698 83.9286 76.1282 85.1303C77.7866 86.332 79.7974 87.0033 81.8729 87C82.8847 87 83.9095 86.8428 84.9278 86.5056C87.0194 85.8147 88.7134 84.4984 89.8998 82.8186C91.0862 81.1388 91.7489 79.1022 91.7457 77C91.7457 75.9751 91.5905 74.9371 91.2575 73.9057C90.5754 71.7872 89.2759 70.0714 87.6175 68.8697C85.9591 67.668 83.9483 66.9967 81.8729 67C80.861 67 79.8362 67.1572 78.8179 67.4944Z" fill="#8ECEA5"/><path d="M77.671 63.664C74.7192 64.5892 72.2923 66.3814 70.6175 68.6443C68.9393 70.9072 68 73.6504 68 76.4968C68 77.8829 68.224 79.2915 68.6886 80.6744C69.648 83.5208 71.5067 85.861 73.8534 87.476C76.2001 89.0942 79.0449 90 81.9967 90C83.4341 90 84.8949 89.784 86.329 89.336C89.2808 88.4108 91.7077 86.6185 93.3825 84.3557C95.0606 82.0928 96 79.3496 96 76.5032C96 75.1171 95.776 73.7084 95.3114 72.3256C94.352 69.4792 92.4933 67.139 90.1466 65.524C87.7999 63.9058 84.9551 63 82.0033 63C80.5659 63 79.1051 63.216 77.671 63.664ZM91.7077 73.4538C92.0487 74.4692 92.2125 75.4943 92.2125 76.5C92.2125 78.5695 91.5272 80.5745 90.3037 82.2281C89.0769 83.8818 87.3219 85.1776 85.1624 85.8578C84.1094 86.1866 83.0463 86.3446 82.0033 86.3446C79.8572 86.3446 77.7779 85.6837 76.063 84.5039C74.3481 83.3209 73.0043 81.6318 72.299 79.5462C71.958 78.5308 71.7942 77.5057 71.7942 76.5C71.7942 74.4305 72.4795 72.4255 73.703 70.7718C74.9298 69.1182 76.6815 67.8224 78.8443 67.1422C79.8973 66.8134 80.9604 66.6554 82.0033 66.6554C84.1495 66.6554 86.2287 67.3163 87.9436 68.4961C89.6585 69.6791 91.0024 71.3682 91.7077 73.4538Z" fill="#579E64"/></svg>