<svg width="120" height="120" viewBox="0 0 120 120" fill="none" xmlns="http://www.w3.org/2000/svg">
<rect width="120" height="120" fill="#EFF7F0"/>
<path d="M71.9676 80.5024H67.4351V87.2599H71.9676V80.5024Z" fill="#8ECEA5"/>
<path d="M112.157 16.6173H52.0386C51.1376 16.6173 50.4052 17.3957 50.4052 18.355C50.4052 19.3142 51.1345 20.0926 52.0386 20.0926H112.157C112.706 20.0926 113.187 20.3255 113.545 20.7055C113.904 21.0886 114.121 21.6004 114.121 22.1857V70.1407H25.2815V22.1826C25.2815 21.6004 25.4991 21.0886 25.8577 20.7024C26.2193 20.3224 26.7004 20.0895 27.2459 20.0895H45.511C46.412 20.0895 47.1444 19.3111 47.1444 18.3519C47.1444 17.3927 46.415 16.6143 45.511 16.6143H27.2459C25.8086 16.6143 24.4909 17.2394 23.547 18.2446C22.6031 19.2468 22.0146 20.6503 22.0146 22.1796V74.9337C22.0146 76.466 22.6031 77.8665 23.547 78.8687C24.4878 79.8739 25.8056 80.499 27.2459 80.499H64.1714V87.2565H61.6186C59.6051 87.2565 57.7694 88.1299 56.4516 89.5335C55.1308 90.934 54.3095 92.8892 54.3125 95.0314C54.3125 95.488 54.4872 95.9355 54.7906 96.2603C55.094 96.5852 55.5139 96.769 55.946 96.769H83.4569C83.886 96.769 84.3058 96.5852 84.6123 96.2603C84.9157 95.9355 85.0904 95.488 85.0904 95.0314C85.0904 92.8892 84.2691 90.934 82.9513 89.5335C81.6335 88.1299 79.7978 87.2534 77.7844 87.2565H75.2315V80.499H112.157C113.594 80.499 114.912 79.8739 115.856 78.8687C116.8 77.8665 117.388 76.463 117.388 74.9337V22.1826C117.388 20.6503 116.8 19.2498 115.856 18.2477C114.915 17.2425 113.597 16.6173 112.157 16.6173ZM77.7844 90.7318C78.906 90.7318 79.9051 91.2098 80.6436 91.9913C80.9961 92.3683 81.278 92.8096 81.4833 93.2968H57.9257C58.128 92.8096 58.413 92.3683 58.7654 91.9913C59.5009 91.2098 60.503 90.7318 61.6247 90.7318H77.7905H77.7844ZM67.4352 87.2596V80.5021H71.9677V87.2596H67.4352ZM114.121 74.9368C114.121 75.5191 113.904 76.0308 113.545 76.417C113.184 76.797 112.702 77.0299 112.157 77.0299H27.2459C26.6974 77.0299 26.2162 76.797 25.8577 76.417C25.4991 76.0339 25.2815 75.5221 25.2815 74.9368V73.6129H114.121V74.9368Z" fill="#579E64"/>
<path d="M58.7622 91.9944C58.4098 92.3714 58.1278 92.8127 57.9225 93.2999H81.4801C81.2778 92.8127 80.9928 92.3714 80.6404 91.9944C79.9049 91.2129 78.9028 90.7349 77.7811 90.7349H61.6153C60.4937 90.7349 59.4946 91.2129 58.7561 91.9944H58.7622Z" fill="#8ECEA5"/>
<path d="M45.511 20.0927H27.2459C26.6973 20.0927 26.2162 20.3257 25.8576 20.7057C25.4991 21.0887 25.2815 21.6005 25.2815 22.1859V70.1408H114.121V22.1828C114.121 21.6005 113.904 21.0887 113.545 20.7026C113.184 20.3226 112.702 20.0897 112.157 20.0897H52.0386C51.1376 20.0897 50.4051 19.3113 50.4051 18.3521H47.1413C47.1413 19.3113 46.412 20.0897 45.5079 20.0897L45.511 20.0927ZM70.8553 31.7352C70.8553 31.2786 71.0299 30.8311 71.3333 30.5063C71.6367 30.1814 72.0566 29.9976 72.4887 29.9976H99.0895C99.5185 29.9976 99.9384 30.1814 100.245 30.5063C100.548 30.8311 100.723 31.2786 100.723 31.7352V38.7593C100.723 39.2159 100.548 39.6633 100.245 39.9882C99.9414 40.313 99.5216 40.4969 99.0895 40.4969H72.4887C72.0597 40.4969 71.6398 40.313 71.3333 39.9882C71.0299 39.6633 70.8553 39.2159 70.8553 38.7593V31.7352ZM72.4856 49.4272H98.2253C99.1263 49.4272 99.8587 50.2056 99.8587 51.1648C99.8587 52.124 99.1293 52.9024 98.2253 52.9024H72.4856C71.5846 52.9024 70.8522 52.124 70.8522 51.1648C70.8522 50.2056 71.5816 49.4272 72.4856 49.4272ZM72.4856 57.389H98.2253C99.1263 57.389 99.8587 58.1674 99.8587 59.1266C99.8587 60.0859 99.1293 60.8643 98.2253 60.8643H72.4856C71.5846 60.8643 70.8522 60.0859 70.8522 59.1266C70.8522 58.1674 71.5816 57.389 72.4856 57.389Z" fill="white"/>
<path d="M25.2815 74.9371C25.2815 75.5193 25.4991 76.0311 25.8576 76.4173C26.2193 76.7973 26.7004 77.0302 27.2459 77.0302H112.157C112.706 77.0302 113.187 76.7973 113.545 76.4173C113.904 76.0342 114.121 75.5224 114.121 74.9371V73.6162H25.2815V74.9371Z" fill="#8ECEA5"/>
<path d="M97.453 33.4727H74.1191V37.0215H97.453V33.4727Z" fill="#8ECEA5"/>
<path d="M72.4856 40.4969H99.0864C99.5154 40.4969 99.9353 40.313 100.242 39.9882C100.545 39.6633 100.72 39.2159 100.72 38.7593V31.7352C100.72 31.2786 100.545 30.8311 100.242 30.5063C99.9384 30.1814 99.5185 29.9976 99.0864 29.9976H72.4856C72.0566 29.9976 71.6367 30.1814 71.3303 30.5063C71.0269 30.8311 70.8522 31.2786 70.8522 31.7352V38.7593C70.8522 39.2159 71.0269 39.6633 71.3303 39.9882C71.6336 40.313 72.0535 40.4969 72.4856 40.4969ZM97.453 33.4728V37.0216H74.119V33.4728H97.453Z" fill="#579E64"/>
<path d="M72.4856 52.9025H98.2252C99.1262 52.9025 99.8587 52.1241 99.8587 51.1649C99.8587 50.2057 99.1293 49.4272 98.2252 49.4272H72.4856C71.5846 49.4272 70.8522 50.2057 70.8522 51.1649C70.8522 52.1241 71.5815 52.9025 72.4856 52.9025Z" fill="#579E64"/>
<path d="M72.4856 60.8644H98.2252C99.1262 60.8644 99.8587 60.086 99.8587 59.1268C99.8587 58.1676 99.1293 57.3892 98.2252 57.3892H72.4856C71.5846 57.3892 70.8522 58.1676 70.8522 59.1268C70.8522 60.086 71.5815 60.8644 72.4856 60.8644Z" fill="#579E64"/>
<path d="M3.97741 36.9882H40.4707V46.182C40.4707 47.6653 41.8284 48.502 42.7661 47.5979L56.6948 34.178C57.4364 33.4639 57.4364 32.0603 56.6948 31.3463L42.7692 17.9264C41.8314 17.0223 40.4738 17.859 40.4738 19.3422V28.536H3.98047C3.19287 28.536 2.55237 29.3359 2.55237 30.3227V35.2016C2.55237 36.1884 3.18981 36.9882 3.98047 36.9882H3.97741Z" fill="#8ECEA5"/>
<path d="M40.455 16.4174C41.4944 15.7766 42.85 15.8484 43.8461 16.8086L57.7718 30.2282H57.7715C58.5048 30.9343 58.8031 31.8998 58.8031 32.7619C58.8031 33.6239 58.5047 34.5892 57.7715 35.2953L43.8431 48.7155C42.847 49.6756 41.4913 49.7469 40.452 49.1061C39.4791 48.5061 38.9185 47.3901 38.9185 46.1818V38.5401H3.97752C3.97606 38.5401 3.97448 38.5398 3.97303 38.5398C2.02237 38.5351 1 36.6996 1 35.2013V30.3225C1 28.82 2.02994 26.9834 3.98051 26.9834H38.9215V19.342C38.9215 18.1337 39.482 17.0174 40.455 16.4174ZM4.10471 35.2013C4.10471 35.3068 4.12669 35.385 4.1487 35.4356H40.4709C41.3281 35.4357 42.0229 36.1308 42.0229 36.988V46.1582L55.6176 33.06L55.6182 33.0597C55.6264 33.0518 55.6987 32.9585 55.6987 32.7619C55.6987 32.5653 55.6264 32.472 55.6182 32.4641L55.6176 32.4638L42.0259 19.3656V28.5358C42.0259 29.393 41.3311 30.0881 40.4739 30.0882H4.1493C4.12697 30.1388 4.10471 30.2172 4.10471 30.3225V35.2013Z" fill="#579E64"/>
<path d="M56.3576 66.4746H19.8642V75.6684C19.8642 77.1516 18.5066 77.9883 17.5688 77.0842L3.64021 63.6643C2.89858 62.9503 2.89858 61.5467 3.64021 60.8326L17.5688 47.4127C18.5066 46.5086 19.8642 47.3453 19.8642 48.8286V58.0224H56.3576C57.1452 58.0224 57.7857 58.8222 57.7857 59.809V64.6879C57.7857 65.6747 57.1482 66.4746 56.3576 66.4746Z" fill="#8ECEA5"/>
<path d="M56.2335 59.8088C56.2335 59.7034 56.2109 59.6251 56.1886 59.5745H19.8643C19.0071 59.5745 18.3123 58.8794 18.3123 58.0221V48.8516L4.71725 61.9501L4.71695 61.9504C4.70874 61.9583 4.63645 62.0516 4.63645 62.2482C4.63645 62.3955 4.67696 62.4847 4.70079 62.5236L4.71695 62.546L4.71725 62.5463L18.3123 75.6445V66.4743C18.3123 65.6171 19.0071 64.922 19.8643 64.922H56.1895C56.2115 64.8713 56.2335 64.7931 56.2335 64.6876V59.8088ZM59.3379 64.6876C59.3379 66.1878 58.3132 68.0264 56.3577 68.0264H21.4167V75.6681C21.4167 76.8765 20.8559 77.9924 19.8829 78.5924C18.8436 79.2332 17.4882 79.1618 16.492 78.2018L2.56365 64.7822L2.49631 64.7152C1.81203 64.0157 1.53174 63.0835 1.53174 62.2482C1.53174 61.3861 1.83027 60.4204 2.56365 59.7142L16.492 46.2946C17.4881 45.3347 18.8436 45.263 19.8829 45.9038C20.8559 46.5037 21.4167 47.62 21.4167 48.8283V56.4698H56.3577C58.3082 56.4698 59.3379 58.3063 59.3379 59.8088V64.6876Z" fill="#579E64"/>
</svg>
