<svg width="80" height="68" viewBox="0 0 80 68" fill="none" xmlns="http://www.w3.org/2000/svg">
<path d="M73.7327 0L80 11.7972C73.9785 15.1152 69.4931 18.8633 66.5438 23.0415C63.4716 27.2197 61.9355 32.3809 61.9355 38.5253L63.4101 55.2995L53.4562 42.212C54.9309 40.9831 56.5899 39.9385 58.4332 39.0783C60.1536 38.341 61.9969 37.9723 63.9631 37.9723C67.8955 37.9723 71.3364 39.2627 74.2857 41.8433C77.235 44.424 78.7097 47.8648 78.7097 52.1659C78.7097 56.9585 77.3579 60.7066 74.6544 63.4101C71.828 66.1137 68.2642 67.4654 63.9631 67.4654C58.0645 67.4654 53.6406 65.3149 50.6913 61.0138C47.6191 56.7127 46.083 50.6298 46.083 42.765C46.083 33.3026 48.4178 24.9462 53.0876 17.6958C57.6344 10.5684 64.5161 4.66974 73.7327 0ZM27.6498 0L34.1014 11.7972C27.957 15.1152 23.4102 18.8633 20.4608 23.0415C17.3886 27.2197 15.8525 32.3809 15.8525 38.5253L17.3272 55.2995L7.37328 42.212C8.84793 40.9831 10.5069 39.9385 12.3502 39.0783C14.0707 38.341 15.914 37.9723 17.8802 37.9723C21.8126 37.9723 25.2535 39.2627 28.2028 41.8433C31.1521 44.424 32.6267 47.8648 32.6267 52.1659C32.6267 56.9585 31.275 60.7066 28.5714 63.4101C25.745 66.1137 22.1813 67.4654 17.8802 67.4654C11.9816 67.4654 7.55762 65.3149 4.60831 61.0138C1.53611 56.7127 7.64315e-06 50.6298 7.64315e-06 42.765C7.64315e-06 33.3026 2.33488 24.9462 7.00462 17.6958C11.5515 10.5684 18.4332 4.66974 27.6498 0Z" fill="#FFDF3F"/>
</svg>
