<svg width="80" height="68" fill="none" xmlns="http://www.w3.org/2000/svg"><path d="M73.7327 0L80 11.7972C73.9785 15.1152 69.4931 18.8633 66.5438 23.0415C63.4716 27.2197 61.9355 32.381 61.9355 38.5254L63.4101 55.2996L53.4562 42.212C54.9309 40.9831 56.5898 39.9386 58.4332 39.0784C60.1536 38.341 61.9969 37.9724 63.9631 37.9724C67.8955 37.9724 71.3364 39.2627 74.2857 41.8433C77.235 44.424 78.7097 47.8649 78.7097 52.1659C78.7097 56.9586 77.3579 60.7066 74.6544 63.4102C71.828 66.1137 68.2642 67.4655 63.9631 67.4655C58.0645 67.4655 53.6405 65.3149 50.6912 61.0139C47.619 56.7128 46.0829 50.6298 46.0829 42.765C46.0829 33.3026 48.4178 24.9463 53.0875 17.6959C57.6344 10.5684 64.5161 4.66974 73.7327 0ZM27.6497 0L34.1014 11.7972C27.957 15.1152 23.4101 18.8633 20.4608 23.0415C17.3886 27.2197 15.8525 32.381 15.8525 38.5254L17.3272 55.2996L7.37322 42.212C8.84788 40.9831 10.5069 39.9386 12.3502 39.0784C14.0706 38.341 15.9139 37.9724 17.8802 37.9724C21.8126 37.9724 25.2534 39.2627 28.2027 41.8433C31.152 44.424 32.6267 47.8649 32.6267 52.1659C32.6267 56.9586 31.2749 60.7066 28.5714 63.4102C25.745 66.1137 22.1812 67.4655 17.8802 67.4655C11.9815 67.4655 7.55756 65.3149 4.60825 61.0139C1.53605 56.7128 -5.35021e-05 50.6298 -5.35021e-05 42.765C-5.35021e-05 33.3026 2.33482 24.9463 7.00456 17.6959C11.5514 10.5684 18.4331 4.66974 27.6497 0Z" fill="#FFDF3F"/></svg>