<svg width="120" height="120" viewBox="0 0 120 120" fill="none" xmlns="http://www.w3.org/2000/svg">
<rect width="120" height="120" fill="#EFF7F0"/>
<path d="M43.2115 88.7071C45.9775 88.1092 48.8552 88.3611 51.4779 89.4297L51.7309 89.5356L51.8227 89.5785C51.8529 89.5937 51.8825 89.61 51.9117 89.6271L60.7756 94.814L72.1895 101.228L92.6235 92.0538C94.6711 91.1323 97.077 91.9221 98.2053 93.8894H98.205C99.3932 95.9541 98.7644 98.6029 96.7854 99.895L69.6015 117.657L69.6007 117.658C66.9943 119.359 63.7615 119.739 60.8437 118.691L60.8434 118.691L39.9839 111.195L23.1114 115.355C22.2228 115.574 21.3276 115.02 21.1118 114.118C20.896 113.216 21.4414 112.307 22.33 112.088L39.6819 107.811L39.7997 107.786C40.0759 107.739 40.3601 107.764 40.6253 107.86L61.9479 115.522C63.901 116.223 66.065 115.969 67.8097 114.83L94.9934 97.0688L94.9939 97.0682C95.484 96.7484 95.638 96.0918 95.3453 95.5841L95.3433 95.5806C95.0643 95.0943 94.4695 94.9001 93.9653 95.1273L93.9633 95.1281L72.7772 104.641C72.3034 104.853 71.7587 104.829 71.3054 104.574L59.1572 97.7471C59.1488 97.7424 59.1406 97.7374 59.1324 97.7326L50.3518 92.5943C48.3106 91.737 46.0617 91.5278 43.9014 91.9948H43.9011L23.0655 96.4977C22.1711 96.691 21.2916 96.1116 21.1012 95.2037C20.9108 94.2958 21.4815 93.403 22.3759 93.2097L43.2115 88.7071Z" fill="#579E64"/>
<path d="M48.9671 90.3041C49.4172 89.5018 50.4295 89.2181 51.2281 89.6702L67.9636 99.1461L68.0502 99.199C68.2816 99.3494 68.5469 99.4484 68.8232 99.4879L68.9424 99.5011L68.9442 99.5014L72.6648 99.8013C75.4908 100.029 77.6292 102.465 77.5009 105.309V105.311C77.3812 107.929 75.368 110.071 72.7651 110.329L72.7648 110.328L68.7801 110.728C68.7784 110.729 68.7768 110.729 68.7752 110.729C68.1159 110.793 67.4497 110.733 66.8084 110.549L66.8073 110.548L51.5677 106.149C50.6867 105.894 50.1776 104.97 50.4308 104.085C50.684 103.2 51.6035 102.689 52.4845 102.943L67.7232 107.343L67.8124 107.366C68.0218 107.416 68.2382 107.43 68.4553 107.409L72.4372 107.01H72.4392C73.396 106.915 74.1405 106.127 74.1848 105.157C74.2301 104.141 73.4913 103.266 72.4964 103.136L72.3992 103.126L68.6786 102.826V102.826C67.8381 102.758 67.0214 102.488 66.3047 102.035L49.598 92.5756C48.7995 92.1234 48.5171 91.1064 48.9671 90.3041Z" fill="#579E64"/>
<path d="M56.7401 83.0653C76.4431 83.0653 92.4156 67.0929 92.4156 47.3898C92.4156 27.6868 76.4431 11.7144 56.7401 11.7144C37.037 11.7144 21.0646 27.6868 21.0646 47.3898C21.0646 67.0929 37.037 83.0653 56.7401 83.0653Z" fill="white"/>
<path d="M85.9791 67.0913H89.2675C94.2565 67.0913 98.4241 70.8789 98.8897 75.8386L99.8701 86.2602H75.3765L76.357 75.8386C76.8226 70.8818 80.9902 67.0913 85.9791 67.0913Z" fill="#8ECEA5"/>
<path d="M89.7951 66.0264C95.6124 66.0264 100.472 70.4411 101.016 76.2213L101.993 86.6065C102.036 87.0635 101.884 87.5174 101.574 87.8569C101.264 88.1964 100.825 88.3901 100.365 88.3901H75.9465C75.4863 88.3901 75.0475 88.1964 74.7377 87.8569C74.428 87.5174 74.2757 87.0635 74.3187 86.6065L75.2964 76.2213C75.8395 70.4444 80.699 66.0264 86.5168 66.0264H89.7951ZM86.5168 69.2885C82.3872 69.2885 78.9371 72.4246 78.5516 76.5261V76.5264L77.7421 85.1279H98.5698L97.7603 76.5264L97.76 76.5261C97.3745 72.4222 93.925 69.2886 89.7951 69.2885H86.5168Z" fill="#579E64"/>
<path d="M88.1558 67.0913C94.0373 67.0913 98.8052 62.3234 98.8052 56.4419C98.8052 50.5604 94.0373 45.7925 88.1558 45.7925C82.2743 45.7925 77.5064 50.5604 77.5064 56.4419C77.5064 62.3234 82.2743 67.0913 88.1558 67.0913Z" fill="#8ECEA5"/>
<path d="M96.5885 55.9095C96.5885 50.9582 92.5748 46.9443 87.6235 46.9442C82.6721 46.9442 78.6581 50.9582 78.6581 55.9095C78.6582 60.8608 82.6722 64.8746 87.6235 64.8746C92.5747 64.8745 96.5885 60.8608 96.5885 55.9095ZM99.8701 55.9095C99.8701 62.6732 94.3871 68.1562 87.6235 68.1562C80.8598 68.1562 75.3766 62.6732 75.3765 55.9095C75.3765 49.1458 80.8597 43.6626 87.6235 43.6626C94.3872 43.6627 99.8701 49.1458 99.8701 55.9095Z" fill="#579E64"/>
<path d="M56.2076 24.5308V19.1318L49.6647 18.2578C49.3399 17.0791 48.8616 15.9637 48.2475 14.9316L52.2423 9.80862L48.3213 5.99081L43.0599 9.8805C41.9999 9.28253 40.8543 8.81392 39.6438 8.50056L38.7462 2.12988H33.2013L32.3037 8.50056C31.0932 8.8168 29.9476 9.28253 28.8876 9.8805L23.6261 5.99081L19.7051 9.80862L23.7 14.9316C23.0858 15.9637 22.6046 17.0791 22.2827 18.2578L15.7399 19.1318V24.5308L22.2827 25.4047C22.6075 26.5834 23.0858 27.6989 23.7 28.7309L19.7051 33.8539L23.6261 37.6717L28.8876 33.7821C29.9476 34.38 31.0932 34.8486 32.3037 35.162L33.2013 41.5327H38.7462L39.6438 35.162C40.8543 34.8457 41.9999 34.38 43.0599 33.7821L48.3213 37.6717L52.2423 33.8539L48.2475 28.7309C48.8616 27.6989 49.3429 26.5834 49.6647 25.4047L56.2076 24.5308Z" fill="#8ECEA5"/>
<path d="M38.2039 0C39.0376 0 39.7433 0.615524 39.8566 1.44151L40.6062 6.90586C41.2026 7.11212 41.7822 7.3534 42.3428 7.62676L46.7366 4.29092C47.4008 3.78663 48.3355 3.85036 48.9251 4.44004L52.8325 8.34738C53.4221 8.93707 53.4856 9.87151 52.9813 10.5356L49.6449 14.9297C49.9181 15.4909 50.1585 16.0703 50.3646 16.6657L55.831 17.4157C56.6569 17.529 57.2725 18.2347 57.2725 19.0683V24.5939C57.2725 25.4276 56.6569 26.1332 55.831 26.2466L50.3664 26.9962C50.1601 27.5927 49.9186 28.1721 49.6452 28.7328L52.9813 33.1266C53.4856 33.7908 53.4221 34.7255 52.8325 35.3152L48.9251 39.2225C48.3355 39.8121 47.4008 39.8756 46.7366 39.3713L42.3422 36.0349C41.7811 36.3081 41.2017 36.5485 40.6062 36.7547L39.8566 42.221C39.7432 43.0469 39.0376 43.6625 38.2039 43.6625H32.6783C31.8447 43.6625 31.139 43.0469 31.0256 42.221L30.2757 36.7561C29.6794 36.5498 29.1 36.3085 28.5394 36.0352L24.1456 39.3713C23.4815 39.8756 22.5471 39.8121 21.9574 39.2225L18.05 35.3152C17.4603 34.7255 17.3966 33.7908 17.9009 33.1266L21.237 28.7325C20.9638 28.1713 20.7234 27.5918 20.5173 26.9962L15.0515 26.2466C14.2255 26.1333 13.61 25.4276 13.61 24.5939V19.0683C13.61 18.2347 14.2255 17.529 15.0515 17.4157L20.5159 16.6657C20.7221 16.0694 20.9634 15.4898 21.2367 14.9291L17.9009 10.5356C17.3966 9.87148 17.4604 8.93706 18.05 8.34738L21.9574 4.44004L22.0134 4.38631C22.6049 3.84687 23.5022 3.80238 24.1456 4.29092L28.5397 7.62705C29.1008 7.35389 29.6803 7.11343 30.2757 6.9073L31.0256 1.44151C31.1389 0.615558 31.8447 5.13719e-05 32.6783 0H38.2039ZM33.4369 8.4149C33.3456 9.07991 32.8646 9.62558 32.2163 9.79952C31.1519 10.0851 30.146 10.5051 29.2161 11.0439C28.6341 11.381 27.9068 11.3357 27.3711 10.929L23.2871 7.82847L21.4385 9.67712L24.539 13.7612C24.9457 14.2968 24.991 15.0242 24.6539 15.6061C24.1139 16.5382 23.692 17.5432 23.4104 18.6026C23.2375 19.2526 22.6913 19.7355 22.0249 19.8269L16.9464 20.5234V23.1389L22.0249 23.8356L22.0869 23.8454C22.7237 23.9572 23.241 24.4282 23.4095 25.0562C23.6951 26.1206 24.1152 27.1263 24.6539 28.0562C24.9911 28.6381 24.9457 29.3657 24.539 29.9014L21.4382 33.9848L23.2871 35.8338L27.3711 32.7333L27.4217 32.6962C27.9519 32.3241 28.6523 32.292 29.2161 32.6186C30.1482 33.1587 31.1531 33.5802 32.2126 33.8619C32.8626 34.0347 33.3454 34.581 33.4369 35.2473L34.1336 40.3258H36.7489L37.4456 35.2473L37.4554 35.1856C37.5672 34.5488 38.0381 34.0315 38.6662 33.863C39.7305 33.5774 40.7363 33.1574 41.6662 32.6186L41.721 32.5882C42.2933 32.2846 42.9924 32.3392 43.5114 32.7333L47.5951 35.8338L49.4438 33.9851L46.3432 29.9014C45.9365 29.3657 45.8914 28.6381 46.2286 28.0562C46.7686 27.1241 47.1902 26.1191 47.4719 25.0597C47.6447 24.4097 48.191 23.9271 48.8573 23.8356L53.9358 23.1389V20.5234L48.8573 19.8269C48.1924 19.7356 47.6469 19.2546 47.473 18.6063C47.1874 17.5419 46.7674 16.536 46.2286 15.6061C45.8915 15.0242 45.9366 14.2968 46.3432 13.7612L49.4438 9.67712L47.5948 7.82818L43.5114 10.929C42.9757 11.3357 42.2481 11.3811 41.6662 11.0439C40.734 10.5039 39.7291 10.082 38.6696 9.80038C38.0196 9.62754 37.5371 9.08125 37.4456 8.4149L36.7489 3.33642H34.1336L33.4369 8.4149Z" fill="#579E64"/>
<path d="M35.9737 27.6885C38.9145 27.6885 41.2984 25.0661 41.2984 21.8313C41.2984 18.5965 38.9145 15.9741 35.9737 15.9741C33.033 15.9741 30.649 18.5965 30.649 21.8313C30.649 25.0661 33.033 27.6885 35.9737 27.6885Z" fill="white"/>
<path d="M39.1608 21.8313C39.1607 19.7771 37.4955 18.1118 35.4413 18.1118C33.3871 18.1118 31.7218 19.7771 31.7218 21.8313C31.7218 23.8855 33.3871 25.5507 35.4413 25.5508C37.4955 25.5508 39.1608 23.8855 39.1608 21.8313ZM42.3634 21.8313C42.3634 25.6543 39.2643 28.7534 35.4413 28.7534C31.6183 28.7534 28.5192 25.6543 28.5192 21.8313C28.5192 18.0083 31.6183 14.9092 35.4413 14.9092C39.2643 14.9092 42.3634 18.0083 42.3634 21.8313Z" fill="#579E64"/>
</svg>
